<svg width="240" height="84" viewBox="0 0 240 84" fill="none" xmlns="http://www.w3.org/2000/svg">
<path d="M47.2667 63.8041L49.6044 67.3558C51.8461 71.2042 48.3815 73.0274 48.3815 73.0274C48.3815 73.0274 45.7322 69.7863 43.2867 66.9508C41.8603 65.3303 41.8603 63.1024 44.3058 60.8742L46.14 62.9197L47.2667 63.8041ZM119.708 22.5926C119.708 22.5926 115.429 21.3773 113.595 24.213V24.4155L94.8458 26.441L95.6612 34.543L111.557 32.5175C111.557 32.5175 114.206 32.7201 115.633 30.4919C117.059 28.2639 119.708 22.5926 119.708 22.5926ZM58.3673 43.4551C58.7748 42.4425 58.1635 41.2272 57.1447 40.8219C56.7371 40.6196 48.1777 37.3788 48.1777 28.2639C48.1777 27.0487 47.3626 26.2384 46.14 26.2384C44.9171 26.2384 44.102 27.0487 44.102 28.2639C44.102 40.2143 54.2916 44.873 54.9029 45.0756C55.1067 45.0756 56.3293 44.873 56.5334 44.873C57.3484 44.6703 58.1635 44.2653 58.3673 43.4551ZM91.1777 6.18611C91.1777 6.18611 85.6754 1.93258 80.9881 6.18611C80.9881 6.18611 85.0638 10.4396 87.1018 14.2881C96.0687 10.0345 91.1777 6.18611 91.1777 6.18611Z" fill="#A66635"/>
<path d="M119.708 8.08608C121.95 8.08608 123.768 6.27595 123.768 4.04303C123.768 1.81013 121.95 0 119.708 0C117.466 0 115.648 1.81013 115.648 4.04303C115.648 6.27595 117.466 8.08608 119.708 8.08608Z" fill="#E41320"/>
<path d="M121.738 36.5394C121.738 36.5394 117.249 41.6137 115.412 43.8465C113.78 45.4702 110.923 44.2523 110.923 44.2523L96.8419 39.7871C95.6176 41.4108 93.781 43.0348 91.128 44.6585C87.2509 47.2971 80.9248 49.5299 74.5984 50.9507L66.6399 62.926L64.521 55.2128C62.2761 54.8066 61.7422 55.0987 62.5584 52.054C64.4599 47.1825 58.0689 52.7773 56.4364 50.7478C50.7225 43.6436 58.477 38.5692 58.477 38.5692C58.477 38.5692 78.2718 25.7818 82.9654 22.3312C86.0266 20.0985 86.8428 16.445 87.0468 14.2123C96.0257 9.9498 91.128 6.09328 91.128 6.09328C91.128 6.09328 90.9239 5.89032 90.7199 5.89032C91.9445 5.07841 93.3729 4.46948 95.2094 4.06354C99.9031 2.84569 99.9031 6.09328 109.494 6.09328C114.188 6.09328 110.515 14.0093 105.413 16.242C101.944 17.6628 97.2503 20.9104 97.2503 24.361C97.2503 25.9848 98.8828 28.6234 99.2909 32.0741L115.412 36.7426C115.412 36.7426 115.616 36.3364 115.82 36.3364C119.086 33.9007 121.738 36.5394 121.738 36.5394ZM83.9857 9.54386C86.2306 7.71708 88.6793 5.68734 90.7199 5.68734C90.3118 5.48435 89.9037 5.2814 89.4955 5.07841C87.455 4.06354 83.9857 3.25166 80.9248 6.09328C80.9248 6.09328 77.6596 10.3557 79.2921 11.9795C80.1083 12.7914 81.9451 11.3706 83.9857 9.54386Z" fill="#BF753D"/>
<path d="M109.544 6.06445C108.738 6.06445 108.133 6.06445 107.529 6.06445C107.529 6.06445 108.536 9.29889 111.155 10.1075C111.962 7.88382 111.76 6.06445 109.544 6.06445Z" fill="#5D4037"/>
<path d="M101.439 8.08597C101.439 9.29889 100.627 10.1075 99.4095 10.1075C98.1916 10.1075 97.3794 8.08597 97.3794 8.08597C97.3794 8.08597 98.1916 6.06445 99.4095 6.06445C100.627 6.06445 101.439 6.87305 101.439 8.08597Z" fill="#3E2723"/>
<path d="M4.11572 40.7299C4.11572 40.3257 4.22201 40.0082 4.43456 39.7773C4.64711 39.527 4.96595 39.402 5.39109 39.402H23.9128C25.2462 39.402 26.5022 39.5847 27.6809 39.9505C28.8597 40.3162 29.9418 40.826 30.9273 41.4804C31.9128 42.1154 32.8018 42.8853 33.594 43.7896C34.3862 44.675 35.0528 45.6371 35.594 46.6762C36.1543 47.7154 36.5795 48.8123 36.8693 49.967C37.1592 51.1023 37.3041 52.2569 37.3041 53.4309C37.3041 55.1628 36.9853 56.8564 36.3476 58.5113C35.7293 60.1662 34.8404 61.6384 33.6809 62.9278C32.5215 64.2172 31.1302 65.2659 29.507 66.0742C27.8838 66.8631 26.0867 67.2672 24.1157 67.2866H15.3331V81.0268C15.3331 81.8544 14.8887 82.268 13.9998 82.268H5.39109C5.00462 82.268 4.69543 82.1719 4.46355 81.9793C4.23166 81.7678 4.11572 81.4502 4.11572 81.0268V40.7299ZM25.9418 53.3732C25.9418 52.7958 25.8355 52.2185 25.623 51.6412C25.4297 51.0639 25.1399 50.5538 24.7534 50.1113C24.3669 49.6494 23.8935 49.2742 23.3331 48.9855C22.792 48.6969 22.1737 48.5525 21.478 48.5525H15.3331V58.1938H21.478C22.1737 58.1938 22.8017 58.059 23.3621 57.7896C23.9225 57.501 24.3862 57.1353 24.7534 56.6927C25.1399 56.2502 25.4297 55.7402 25.623 55.1628C25.8355 54.5855 25.9418 53.9889 25.9418 53.3732ZM72.2488 77.8804C70.5485 79.4391 68.6354 80.661 66.5096 81.5464C64.3841 82.4123 62.1328 82.8453 59.756 82.8453C57.1088 82.8453 54.6065 82.3641 52.2488 81.402C49.8914 80.4399 47.8238 79.1121 46.0459 77.4185C44.2682 75.7059 42.8575 73.6948 41.814 71.3855C40.7705 69.0762 40.2488 66.5649 40.2488 63.8515C40.2488 62.1579 40.4517 60.5224 40.8575 58.9443C41.2827 57.3471 41.872 55.8556 42.6256 54.4701C43.3986 53.0845 44.3262 51.8144 45.4082 50.6598C46.5096 49.4858 47.7369 48.4853 49.0893 47.6577C50.4421 46.8301 51.9108 46.1855 53.4951 45.7237C55.0798 45.2618 56.7514 45.0309 58.5096 45.0309C60.1137 45.0309 61.6691 45.2425 63.1763 45.6659C64.6836 46.0894 66.0943 46.6858 67.4082 47.4556C68.7415 48.2255 69.9589 49.1492 71.0604 50.2268C72.1618 51.3043 73.1088 52.4878 73.9009 53.7773C74.6934 55.0474 75.3021 56.4136 75.727 57.8762C76.1717 59.3195 76.3937 60.8111 76.3937 62.3505C76.3937 63.3513 76.3746 64.169 76.3357 64.8041C76.3166 65.4391 76.1717 65.9492 75.9009 66.334C75.6305 66.6997 75.1763 66.9595 74.5386 67.1134C73.9204 67.2482 73.0024 67.3154 71.785 67.3154H50.9154C51.1088 68.5471 51.4951 69.5765 52.0749 70.4041C52.674 71.2317 53.3601 71.8956 54.1328 72.3958C54.9059 72.877 55.727 73.2234 56.5966 73.435C57.4662 73.6466 58.2876 73.7525 59.0604 73.7525C59.756 73.7525 60.4711 73.6853 61.2053 73.5505C61.9398 73.3966 62.645 73.2041 63.3212 72.9732C64.0169 72.7229 64.645 72.444 65.2053 72.136C65.785 71.809 66.2488 71.4721 66.5966 71.1257C66.9059 70.8755 67.1667 70.6927 67.3792 70.5773C67.6111 70.4425 67.8528 70.3752 68.1038 70.3752C68.3551 70.3752 68.6065 70.4618 68.8575 70.635C69.1282 70.8082 69.4276 71.0585 69.756 71.3855L72.8285 74.8494C73.0412 75.0997 73.1763 75.3306 73.2343 75.5422C73.2922 75.7348 73.3212 75.9368 73.3212 76.1484C73.3212 76.5332 73.2151 76.8701 73.0024 77.1587C72.7899 77.428 72.5386 77.6688 72.2488 77.8804ZM58.3067 53.835C57.5531 53.835 56.8189 53.9889 56.1038 54.2969C55.4082 54.5855 54.7514 54.9801 54.1328 55.4804C53.5146 55.9806 52.9543 56.5484 52.4517 57.1835C51.9688 57.8185 51.5725 58.4631 51.2633 59.1175H66.0749C65.6691 58.367 65.2247 57.6742 64.7415 57.0391C64.2778 56.4041 63.7369 55.8461 63.1183 55.3649C62.5195 54.8837 61.8238 54.5085 61.0314 54.2391C60.2586 53.9698 59.3502 53.835 58.3067 53.835ZM82.4195 39.8927C82.4195 39.2961 82.6128 38.8536 82.9992 38.5649C83.405 38.2569 83.9751 37.9682 84.7093 37.6989L91.2891 35.4185C91.3859 35.3992 91.4728 35.3896 91.5499 35.3896C91.6467 35.3896 91.7337 35.3896 91.8108 35.3896C92.5259 35.3896 92.9992 35.6012 93.2311 36.0247C93.4824 36.4288 93.6079 36.9678 93.6079 37.6412L93.5789 45.5793H97.5499C98.1685 45.5793 98.6708 45.7621 99.0572 46.1278C99.4438 46.4935 99.6369 47.042 99.6369 47.7732V53.3443C99.6369 54.1525 99.4438 54.7492 99.0572 55.134C98.6708 55.4997 98.1685 55.6824 97.5499 55.6824H93.5789L93.6079 80.0453C93.6079 80.7765 93.3954 81.3348 92.9702 81.7195C92.5453 82.0853 91.9557 82.268 91.2021 82.268H84.6514C83.1636 82.268 82.4195 81.527 82.4195 80.0453L82.3905 55.6824H79.405C77.9172 55.6824 77.1731 54.9031 77.1731 53.3443V47.7732C77.1731 46.3105 77.9172 45.5793 79.405 45.5793H82.3905L82.4195 39.8927ZM105.271 40.6433C105.271 40.2969 105.387 39.9987 105.619 39.7484C105.851 39.4981 106.17 39.3732 106.575 39.3732H115.155C115.484 39.3732 115.783 39.4886 116.054 39.7195C116.324 39.9505 116.469 40.2585 116.488 40.6433V72.0494H132.431C132.778 72.0494 133.078 72.1649 133.329 72.3958C133.58 72.6268 133.706 72.9443 133.706 73.3484V80.9402C133.706 81.2672 133.59 81.5657 133.358 81.835C133.146 82.1043 132.836 82.2487 132.431 82.268H106.546C105.696 82.268 105.271 81.8445 105.271 80.9979V40.6433ZM138.161 63.967C138.161 62.1966 138.383 60.4935 138.827 58.8577C139.291 57.2219 139.929 55.7113 140.74 54.3257C141.571 52.9208 142.557 51.6507 143.697 50.5154C144.856 49.3608 146.141 48.3793 147.552 47.5711C148.962 46.7628 150.479 46.1373 152.103 45.6948C153.745 45.2523 155.455 45.0309 157.233 45.0309C159.861 45.0309 162.325 45.5216 164.624 46.5031C166.943 47.4652 168.953 48.8028 170.653 50.5154C172.373 52.209 173.726 54.2103 174.711 56.5195C175.716 58.8095 176.219 61.292 176.219 63.967C176.219 65.7373 175.987 67.4404 175.523 69.0762C175.078 70.6927 174.441 72.2033 173.61 73.6082C172.798 75.0131 171.813 76.2927 170.653 77.4474C169.513 78.5827 168.238 79.5641 166.827 80.3917C165.417 81.2 163.9 81.8255 162.277 82.268C160.673 82.7105 158.991 82.9319 157.233 82.9319C155.455 82.9319 153.745 82.7105 152.103 82.268C150.479 81.8255 148.962 81.2 147.552 80.3917C146.141 79.5641 144.856 78.5827 143.697 77.4474C142.557 76.2927 141.571 75.0131 140.74 73.6082C139.929 72.2033 139.291 70.6927 138.827 69.0762C138.383 67.4404 138.161 65.7373 138.161 63.967ZM148.74 63.967C148.74 65.2371 148.933 66.4301 149.32 67.5464C149.726 68.6433 150.286 69.5958 151.001 70.4041C151.735 71.2123 152.615 71.8569 153.639 72.3381C154.682 72.8 155.851 73.0309 157.146 73.0309C158.402 73.0309 159.533 72.8 160.537 72.3381C161.562 71.8569 162.422 71.2123 163.117 70.4041C163.832 69.5958 164.373 68.6433 164.74 67.5464C165.127 66.4301 165.32 65.2371 165.32 63.967C165.32 62.7353 165.127 61.5616 164.74 60.4453C164.373 59.3291 163.832 58.3476 163.117 57.501C162.422 56.6544 161.562 55.9904 160.537 55.5092C159.533 55.009 158.402 54.7587 157.146 54.7587C155.851 54.7587 154.682 55.009 153.639 55.5092C152.615 55.9904 151.735 56.6544 151.001 57.501C150.286 58.3476 149.726 59.3291 149.32 60.4453C148.933 61.5616 148.74 62.7353 148.74 63.967ZM187.484 70.8659C188.006 71.3855 188.566 71.828 189.165 72.1938C189.784 72.5402 190.373 72.8288 190.933 73.0598C191.494 73.2713 191.986 73.4255 192.411 73.5216C192.837 73.6177 193.126 73.6659 193.281 73.6659C193.648 73.6659 194.112 73.6564 194.672 73.6371C195.252 73.5987 195.803 73.5121 196.324 73.3773C196.846 73.2234 197.291 72.9827 197.658 72.6556C198.044 72.3286 198.237 71.8667 198.237 71.2701C198.237 70.7311 198.131 70.308 197.919 70C197.706 69.6729 197.397 69.4033 196.991 69.1917C196.585 68.9608 196.083 68.7587 195.484 68.5855C194.904 68.4123 194.247 68.2103 193.513 67.9793C191.194 67.3636 189.281 66.6226 187.774 65.7567C186.266 64.8907 185.068 63.9286 184.179 62.8701C183.31 61.7925 182.701 60.6379 182.353 59.4061C182.006 58.1744 181.832 56.8755 181.832 55.5092C181.832 53.9121 182.151 52.459 182.788 51.1505C183.426 49.842 184.334 48.7257 185.513 47.802C186.692 46.859 188.102 46.1373 189.745 45.6371C191.387 45.1175 193.213 44.8577 195.223 44.8577C196.44 44.8577 197.581 44.9636 198.643 45.1752C199.706 45.3678 200.721 45.6853 201.687 46.1278C202.653 46.5513 203.59 47.1092 204.498 47.802C205.426 48.4755 206.344 49.2837 207.252 50.2268C207.581 50.6115 207.745 50.9773 207.745 51.3237C207.764 51.6507 207.552 52.0069 207.107 52.3917C206.353 53.0074 205.629 53.6136 204.933 54.2103C204.257 54.8069 203.552 55.4708 202.817 56.202C202.585 56.3946 202.353 56.5195 202.122 56.5773C201.89 56.6157 201.668 56.6061 201.455 56.5484C201.242 56.4907 201.039 56.3946 200.846 56.2598C200.653 56.1249 200.479 55.9616 200.324 55.769C199.648 55.0185 198.875 54.5183 198.006 54.268C197.136 53.9987 196.324 53.8639 195.571 53.8639C194.624 53.8639 193.871 54.0275 193.31 54.3546C192.75 54.6817 192.489 55.1822 192.527 55.8556C192.566 56.3559 192.75 56.7505 193.078 57.0391C193.426 57.3085 193.842 57.5299 194.324 57.7031C194.827 57.8762 195.349 58.0206 195.89 58.136C196.45 58.2322 196.962 58.3476 197.426 58.4824C199.165 59.0404 200.759 59.6466 202.208 60.301C203.658 60.9554 204.914 61.7636 205.977 62.7257C207.04 63.6688 207.861 64.8041 208.44 66.1319C209.04 67.4598 209.339 69.0762 209.339 70.9814C209.339 72.8866 208.953 74.5897 208.179 76.0907C207.426 77.5917 206.382 78.8523 205.049 79.8721C203.716 80.892 202.131 81.6713 200.295 82.2103C198.479 82.7492 196.518 83.0185 194.411 83.0185C193.213 83.0185 191.996 82.9126 190.759 82.701C189.523 82.4894 188.324 82.1525 187.165 81.6907C186.006 81.2095 184.904 80.6033 183.861 79.8721C182.817 79.1216 181.89 78.2172 181.078 77.1587C180.866 76.8894 180.701 76.6103 180.585 76.3216C180.489 76.0136 180.44 75.7154 180.44 75.4268C180.46 75.1381 180.518 74.8783 180.614 74.6474C180.73 74.3971 180.904 74.1855 181.136 74.0123L184.875 70.2886C185.339 69.9038 185.745 69.769 186.093 69.8845C186.46 70 186.924 70.327 187.484 70.8659ZM217.78 39.8927C217.78 39.2961 217.973 38.8536 218.36 38.5649C218.765 38.2569 219.335 37.9682 220.07 37.6989L226.649 35.4185C226.746 35.3992 226.833 35.3896 226.91 35.3896C227.007 35.3896 227.094 35.3896 227.171 35.3896C227.886 35.3896 228.36 35.6012 228.591 36.0247C228.842 36.4288 228.968 36.9678 228.968 37.6412L228.939 45.5793H232.91C233.528 45.5793 234.031 45.7621 234.417 46.1278C234.804 46.4935 234.997 47.042 234.997 47.7732V53.3443C234.997 54.1525 234.804 54.7492 234.417 55.134C234.031 55.4997 233.528 55.6824 232.91 55.6824H228.939L228.968 80.0453C228.968 80.7765 228.755 81.3348 228.331 81.7195C227.905 82.0853 227.316 82.268 226.562 82.268H220.012C218.524 82.268 217.78 81.527 217.78 80.0453L217.751 55.6824H214.765C213.277 55.6824 212.533 54.9031 212.533 53.3443V47.7732C212.533 46.3105 213.277 45.5793 214.765 45.5793H217.751L217.78 39.8927Z" fill="#222222"/>
</svg>
